<svg width="26" height="26" viewBox="0 0 26 26" xmlns="http://www.w3.org/2000/svg"><path d="M24.9 11l-3.2-.3a9 9 0 0 0-.9-2.2l2-2.5c.3-.2.2-.6 0-.9l-2-1.9a.7.7 0 0 0-.8 0l-2.5 2a9 9 0 0 0-2.2-1L15 1.2c0-.3-.3-.6-.6-.6h-2.8c-.3 0-.6.3-.6.6l-.3 3.2a9 9 0 0 0-2.2.9L6 3.2a.7.7 0 0 0-.9 0l-1.9 2c-.2.2-.3.6 0 .8l2 2.5a9 9 0 0 0-1 2.2l-3.1.3c-.3 0-.6.3-.6.6v2.8c0 .3.3.6.6.6l3.2.3a9 9 0 0 0 .9 2.2l-2 2.5c-.3.2-.2.6 0 .9l2 1.9a.7.7 0 0 0 .8 0l2.5-2a9 9 0 0 0 2.2 1l.3 3.1c0 .3.3.6.6.6h2.8c.3 0 .6-.3.6-.6l.3-3.2a9 9 0 0 0 2.2-.9l2.5 2a.7.7 0 0 0 .9 0l1.9-2c.2-.2.3-.6 0-.8l-2-2.5a9 9 0 0 0 1-2.2l3.1-.3c.3 0 .6-.3.6-.6v-2.8c0-.3-.3-.6-.6-.6zM13 16.7a3.7 3.7 0 1 1 0-7.4 3.7 3.7 0 0 1 0 7.4z" fill-rule="nonzero" fill="#FFF"/></svg>