<svg width="60" height="60" viewBox="0 0 60 60" xmlns="http://www.w3.org/2000/svg"><g fill="none" fill-rule="evenodd"><path d="M30 60a30 30 0 1 1 0-60 30 30 0 0 1 0 60zm11.3-32.5l-3.2-.3c-.2-.8-.5-1.5-.9-2.2l2-2.4c.2-.3.2-.6 0-.9l-2-1.9a.7.7 0 0 0-.8 0l-2.4 2-2.2-1-.3-3c0-.4-.3-.6-.7-.6h-2.6c-.4 0-.7.2-.7.5l-.3 3.2c-.8.2-1.5.5-2.2.9l-2.4-2a.7.7 0 0 0-.9 0l-1.9 2c-.2.2-.2.5 0 .8l2 2.4-1 2.2-3 .3c-.4 0-.6.3-.6.7v2.6c0 .4.2.7.5.7l3.2.3c.2.8.5 1.5.9 2.2l-2 2.4c-.2.3-.2.6 0 .9l2 1.9a.7.7 0 0 0 .8 0l2.4-2 2.2 1 .3 3c0 .4.3.6.7.6h2.6c.4 0 .7-.2.7-.5l.3-3.2c.8-.2 1.5-.5 2.2-.9l2.4 2a.7.7 0 0 0 .9 0l1.9-2c.2-.2.2-.5 0-.8l-2-2.4 1-2.2 3-.3c.4 0 .6-.3.6-.7v-2.6c0-.4-.2-.7-.5-.7zm-11.8 5.6a3.6 3.6 0 1 1 0-7.2 3.6 3.6 0 0 1 0 7.2z" fill="#333"/></g></svg>