<svg width="25" height="25" viewBox="0 0 25 25" xmlns="http://www.w3.org/2000/svg"><g fill-rule="nonzero" fill="#FFF"><path d="M24 19.1H10.4c-.5 0-.8.4-.8.9v4c0 .4.4.8.8.8H24c.5 0 .9-.4.9-.9V20c0-.5-.4-.9-.9-.9zM5 19.1H1c-.4 0-.8.4-.8.9v4c0 .4.4.8.9.8h4c.4 0 .8-.4.8-.9v-4c0-.4-.4-.8-.9-.8zM24 9.6H10.4c-.5 0-.8.4-.8 1v3.9c0 .4.4.8.8.8H24c.5 0 .9-.4.9-.8v-4c0-.5-.4-.9-.9-.9zM5 9.6H1c-.4 0-.8.4-.8.9v4c0 .4.4.8.9.8h4c.4 0 .8-.4.8-.8v-4c0-.5-.4-.9-.9-.9zM9.7 5c0 .5.4.9.8.9H24c.5 0 .9-.4.9-.9V1.1c0-.5-.4-.9-.9-.9H10.5c-.5 0-.8.4-.8.9v4zM5 .2H1C.7.2.3.6.3 1.1v4c0 .4.4.8.9.8h4c.4 0 .8-.4.8-.9V1c0-.4-.4-.8-.9-.8z"/></g></svg>