<svg width="35" height="30" viewBox="0 0 35 30" xmlns="http://www.w3.org/2000/svg"><g fill-rule="nonzero" fill="#FFF"><path d="M29.2 1.2l-.8-.8c-.4-.3-1-.3-1.4 0L25.6 2c-.3.4-.3 1 0 1.4l.8.7a15 15 0 0 1 0 21.3l-.6.7h-.1c-.4.5-.3 1.1 0 1.5l1.4 1.4c.5.3 1 .3 1.4 0l.1-.1.7-.7a19 19 0 0 0 0-26.9z"/><path d="M25.4 6.6l-.8-.8c-.5-.4-1-.3-1.5 0l-1.3 1.3v.1c-.4.5-.4 1 0 1.4l.7.8a7.5 7.5 0 0 1 .1 10.5l-.7.7c-.4.5-.4 1.1 0 1.5l1.4 1.4c.4.3 1 .3 1.4 0l.7-.8a11.5 11.5 0 0 0 0-16.1zM18.6 4l-.4.1-8.3 4.8-3.2 1.8H.8c-.3 0-.6.3-.6.7v8.4c0 .3.3.6.6.6h6l4.6 2.7 6.7 3.9a.8.8 0 0 0 1.4-.7V4.7c0-.4-.4-.7-.9-.7z"/></g></svg>