<?xml version="1.0" standalone="no"?>
<!DOCTYPE svg PUBLIC "-//W3C//DTD SVG 20010904//EN"
 "http://www.w3.org/TR/2001/REC-SVG-20010904/DTD/svg10.dtd">
<svg version="1.0" xmlns="http://www.w3.org/2000/svg"
 width="260.000000pt" height="260.000000pt" viewBox="0 0 260.000000 260.000000"
 preserveAspectRatio="xMidYMid meet">
<metadata>
Created by potrace 1.11, written by Peter Selinger 2001-2013
</metadata>
<g transform="translate(0.000000,260.000000) scale(0.100000,-0.100000)"
fill="#000000" stroke="none">
<path d="M1100 2585 c-288 -49 -532 -175 -733 -381 -181 -186 -310 -442 -351
-699 -14 -89 -15 -339 -1 -415 101 -559 518 -975 1078 -1074 126 -23 363 -14
497 17 246 58 462 179 632 353 202 207 315 430 363 716 13 79 14 319 1 395
-88 533 -474 947 -996 1070 -128 30 -369 39 -490 18z m505 -94 c356 -92 646
-332 806 -666 87 -181 120 -342 115 -560 -3 -127 -8 -168 -34 -265 -16 -63
-46 -152 -67 -198 -39 -84 -61 -110 -27 -31 19 45 47 146 57 209 3 19 8 47 11
62 11 55 5 257 -10 344 -64 360 -299 679 -621 843 -101 51 -236 95 -345 114
-79 13 -306 16 -355 4 -11 -2 -40 -8 -65 -12 -130 -21 -327 -105 -448 -192
-36 -25 -101 -82 -147 -127 -228 -226 -347 -511 -346 -831 0 -66 2 -129 5
-140 2 -11 7 -42 10 -68 6 -39 29 -118 79 -262 4 -11 -13 21 -37 70 -100 201
-140 488 -100 720 67 384 316 720 665 895 192 96 347 130 574 125 141 -2 174
-6 280 -34z m-111 -197 c542 -94 943 -579 930 -1125 -1 -57 -5 -120 -8 -139
-13 -90 -19 -115 -37 -168 -11 -31 -22 -64 -24 -72 -8 -41 -128 -260 -141
-260 -2 0 9 24 24 53 127 236 154 547 70 807 -53 163 -142 307 -267 430 -211
210 -474 314 -771 305 -281 -8 -511 -107 -711 -305 -214 -211 -320 -472 -314
-770 2 -69 6 -136 9 -150 3 -14 8 -38 12 -55 13 -68 50 -172 86 -244 31 -60
34 -70 14 -46 -53 63 -136 255 -166 380 -35 149 -33 367 5 518 53 208 159 391
312 537 170 165 362 264 588 305 98 18 283 18 389 -1z m-7 -227 c336 -86 558
-250 704 -521 134 -249 156 -561 58 -826 -25 -68 -82 -176 -110 -210 l-21 -25
20 36 c18 34 60 138 67 169 51 213 49 368 -6 547 -76 245 -273 469 -506 574
-281 127 -615 109 -869 -45 -141 -86 -227 -169 -317 -304 -175 -265 -197 -634
-55 -915 39 -79 18 -63 -28 20 -223 397 -163 882 147 1200 153 158 358 269
554 300 17 3 32 7 34 9 6 5 303 -3 328 -9z m19 -241 c200 -49 378 -163 503
-324 212 -274 246 -655 85 -962 -53 -101 -80 -128 -39 -39 96 212 94 475 -5
688 -102 217 -289 376 -527 447 -75 22 -107 26 -218 27 -153 0 -243 -20 -370
-82 -203 -100 -357 -280 -425 -496 -59 -190 -44 -414 40 -592 16 -35 27 -63
25 -63 -3 0 -25 35 -50 77 -156 267 -160 610 -9 880 195 351 604 532 990 439z
m-1 -231 c130 -35 293 -138 384 -242 225 -255 253 -655 66 -938 -112 -168
-286 -291 -464 -329 -82 -17 -300 -18 -378 -1 -398 86 -661 503 -577 913 63
310 317 556 629 612 71 13 269 4 340 -15z"/>
</g>
</svg>
